<svg xmlns="http://www.w3.org/2000/svg" viewBox="0 0 1060.49 247.31"><defs><style>.cls-1{fill:#fff;}</style></defs><title>Asset 9</title><g id="Layer_2" data-name="Layer 2"><g id="Layer_2-2" data-name="Layer 2"><path class="cls-1" d="M294.69,57.33h-.21a6.23,6.23,0,0,0-6.26,6.26v90.85a5.91,5.91,0,0,0,1.86,4.42,6,6,0,0,0,4.4,1.85h.21a6.06,6.06,0,0,0,4.41-1.85,5.94,5.94,0,0,0,1.86-4.42V63.59a6.23,6.23,0,0,0-6.27-6.26"/><path class="cls-1" d="M348.72,85.55a31.27,31.27,0,0,0-31.25,31.25v37.65a5.94,5.94,0,0,0,1.86,4.41,6.06,6.06,0,0,0,4.41,1.85H324a6,6,0,0,0,4.4-1.85,5.9,5.9,0,0,0,1.86-4.41V116.8a18.48,18.48,0,1,1,37,0v37.65a5.9,5.9,0,0,0,1.86,4.41,6.12,6.12,0,0,0,4.47,1.85h.14a6.33,6.33,0,0,0,6.26-6.26V116.8a31.26,31.26,0,0,0-31.18-31.25"/><path class="cls-1" d="M425.88,57.33H422a27.25,27.25,0,0,0-20,8.26,27.75,27.75,0,0,0-8.26,20v68.89a5.91,5.91,0,0,0,1.86,4.42,6,6,0,0,0,4.4,1.85h.21a6.07,6.07,0,0,0,4.41-1.85,5.94,5.94,0,0,0,1.86-4.42V98.35h19.47a6.08,6.08,0,0,0,4.47-1.86,6.2,6.2,0,0,0,1.8-4.47v-.14a6,6,0,0,0-1.8-4.4,6.08,6.08,0,0,0-4.47-1.86H406.41v-.07a15.31,15.31,0,0,1,4.54-11A15,15,0,0,1,422,70h3.92a6.13,6.13,0,0,0,6.27-6.27v-.14a6.13,6.13,0,0,0-6.27-6.26"/><path class="cls-1" d="M450.73,72.47a7.63,7.63,0,0,0,7.57-7.57A7.14,7.14,0,0,0,456,59.6a7.27,7.27,0,0,0-5.3-2.2,7.34,7.34,0,0,0-5.37,2.2,7.23,7.23,0,0,0-2.2,5.3,7.51,7.51,0,0,0,7.57,7.57"/><path class="cls-1" d="M504.69,85.55a31.27,31.27,0,0,0-31.25,31.25v37.65s0,0,0,.07v4.72a8.21,8.21,0,1,1-16.42,0V154.8c0-.12,0-.23,0-.35V91.88a6.1,6.1,0,0,0-1.86-4.47,5.86,5.86,0,0,0-4.4-1.86h-.14a6.35,6.35,0,0,0-6.33,6.33V150h0v9.3a20.92,20.92,0,0,0,41.84,0v-4.63c0-.09,0-.16,0-.24V116.8a18.48,18.48,0,1,1,37,0v37.65a5.89,5.89,0,0,0,1.85,4.41,6.13,6.13,0,0,0,4.48,1.85h.14a6.33,6.33,0,0,0,6.26-6.26V116.8a31.26,31.26,0,0,0-31.18-31.25"/><path class="cls-1" d="M558.65,85.55h-.14a6.35,6.35,0,0,0-6.33,6.33v62.57a5.9,5.9,0,0,0,1.86,4.41,6.12,6.12,0,0,0,4.47,1.85h.14a6.33,6.33,0,0,0,6.27-6.26V91.88a6.1,6.1,0,0,0-1.86-4.47,5.9,5.9,0,0,0-4.41-1.86"/><path class="cls-1" d="M558.59,57.4a7.33,7.33,0,0,0-5.37,2.2A7.2,7.2,0,0,0,551,64.9a7.53,7.53,0,0,0,7.58,7.57,7.65,7.65,0,0,0,7.57-7.57,7.11,7.11,0,0,0-2.28-5.3,7.23,7.23,0,0,0-5.29-2.2"/><path class="cls-1" d="M606.42,85.55H594v-22a6.23,6.23,0,0,0-6.26-6.26h-.21a6.15,6.15,0,0,0-4.4,1.79,6.06,6.06,0,0,0-1.86,4.47v77.57a19.5,19.5,0,0,0,19.61,19.55h5.51a6,6,0,0,0,4.4-1.85,5.86,5.86,0,0,0,1.86-4.41v-.14a6.08,6.08,0,0,0-1.86-4.48,6,6,0,0,0-4.4-1.85h-5.51a6.65,6.65,0,0,1-4.88-2,6.58,6.58,0,0,1-2-4.82V98.28h12.39a6,6,0,0,0,4.4-1.86,5.83,5.83,0,0,0,1.86-4.4v-.14a6.06,6.06,0,0,0-1.86-4.47,6,6,0,0,0-4.4-1.86"/><path class="cls-1" d="M678.48,85.55h-.13A6.33,6.33,0,0,0,672,91.88v37.65a18.49,18.49,0,1,1-37,0V91.88a6.33,6.33,0,0,0-6.26-6.33h-.21a6,6,0,0,0-4.4,1.86,6.1,6.1,0,0,0-1.86,4.47v37.65a31.22,31.22,0,0,0,62.43,0V91.88a6.1,6.1,0,0,0-1.86-4.47,5.88,5.88,0,0,0-4.41-1.86"/><path class="cls-1" d="M736.85,124.78q-3.58-3.44-11.29-5.64-10.32-2.76-11.9-3.58-5.1-2.69-5.1-8a9.07,9.07,0,0,1,2.69-6.55,8.92,8.92,0,0,1,6.54-2.68h13.35a6.1,6.1,0,0,0,4.47-1.86,5.85,5.85,0,0,0,1.86-4.4v-.14a6.35,6.35,0,0,0-6.33-6.33H718.47a22,22,0,0,0-22,22q0,9.28,5.09,14.31,3.64,3.51,11.29,5.78c7.16,2,11.12,3.22,11.91,3.59q5.09,2.48,5.09,7.57a9.17,9.17,0,0,1-9.22,9.22H702a6,6,0,0,0-4.4,1.85,6.12,6.12,0,0,0-1.86,4.48v.14a5.9,5.9,0,0,0,1.86,4.41,6,6,0,0,0,4.4,1.85h18a21.83,21.83,0,0,0,22-22q0-9.16-5.09-14"/><path class="cls-1" d="M888.55,85.55h-.14a6.35,6.35,0,0,0-6.33,6.33V146h0v13.23a8.22,8.22,0,0,1-7.93,8.2h-.82a8.21,8.21,0,0,1-8.21-8.21V88.37a31,31,0,0,0-31-31A29.45,29.45,0,0,0,809.4,69.51a31.13,31.13,0,0,0-46.67-3.1,30,30,0,0,0-9.08,22v66.08a5.89,5.89,0,0,0,1.85,4.41,6.06,6.06,0,0,0,4.41,1.85h.2a6,6,0,0,0,4.41-1.85,5.9,5.9,0,0,0,1.86-4.41V88.37a18.31,18.31,0,1,1,36.62,0v66.08a5.9,5.9,0,0,0,1.86,4.41,6.11,6.11,0,0,0,4.47,1.85h.14a6.33,6.33,0,0,0,6.26-6.26V88.37a18.35,18.35,0,1,1,36.69,0V150h0v9.3a20.91,20.91,0,0,0,20.92,20.92h.77a20.92,20.92,0,0,0,20.69-20.92v-4.15c0-.24.06-.47.06-.72V91.88A6.1,6.1,0,0,0,893,87.41a5.86,5.86,0,0,0-4.4-1.86"/><path class="cls-1" d="M888.48,57.4a7.34,7.34,0,0,0-5.37,2.2,7.23,7.23,0,0,0-2.2,5.3,7.51,7.51,0,0,0,7.57,7.57,7.54,7.54,0,0,0,0-15.07"/><path class="cls-1" d="M942.44,85.55a31.27,31.27,0,0,0-31.25,31.25v37.65a5.91,5.91,0,0,0,1.87,4.41,6,6,0,0,0,4.4,1.85h.2a6.06,6.06,0,0,0,4.41-1.85,5.9,5.9,0,0,0,1.86-4.41V116.8a18.48,18.48,0,1,1,37,0v37.65a5.93,5.93,0,0,0,1.85,4.41,6.15,6.15,0,0,0,4.48,1.85h.14a6.33,6.33,0,0,0,6.26-6.26V116.8a31.26,31.26,0,0,0-31.18-31.25"/><path class="cls-1" d="M1040.46,140.89a23.81,23.81,0,0,1-17.55,7.3,24.93,24.93,0,0,1-17.63-42.47,24,24,0,0,1,17.63-7.3,24.91,24.91,0,0,1,24.84,24.92,23.94,23.94,0,0,1-7.29,17.55m18.17-81.77a6.16,6.16,0,0,0-4.41-1.79h-.2a6.16,6.16,0,0,0-4.41,1.79,6.1,6.1,0,0,0-1.86,4.47V95a37.56,37.56,0,0,0-62.42,28.15,37.58,37.58,0,0,0,75.16.21V63.59a6.1,6.1,0,0,0-1.86-4.47"/><path class="cls-1" d="M123.66,236.1A112.44,112.44,0,1,1,236.1,123.66,112.57,112.57,0,0,1,123.66,236.1m0-236.1A123.66,123.66,0,1,0,247.31,123.66,123.8,123.8,0,0,0,123.66,0"/><path class="cls-1" d="M142.75,115.75c3.59-10.1,9-11.26,12.76-11.26,5.45,0,9,5.23,9.55,10.16,2,17.85-6.3,28.21-13.79,33.83-3.39-4.34-12.78-18.09-8.52-32.73m-60.5-1.1c.56-4.93,4.1-10.16,9.55-10.16,3.76,0,9.16,1.14,12.66,10.94,4.34,14.92-5,28.71-8.43,33-7.49-5.62-15.8-16-13.78-33.83m92.31,47.95c-4.61,0-9.95-2.14-15.09-6,12.91-10.33,18.91-25.65,16.92-43.21-1.31-11.56-10.29-20.27-20.88-20.27-7.66,0-18,3.32-23.61,19.15-5.47,18.81,4.38,35.19,9.25,41.78A47.69,47.69,0,0,1,124,157.11h-.76A47.64,47.64,0,0,1,106.16,154c9.77-13.2,13.1-28.5,9.14-42.1-5.54-15.56-15.84-18.83-23.5-18.83-10.59,0-19.57,8.71-20.88,20.27-2,17.56,4,32.88,16.92,43.21-5.14,3.89-10.48,6-15.09,6-15.75,0-32-14.92-32-39.89,0-44.93,37-81.48,82.57-81.48H124c45.54,0,82.58,36.55,82.58,81.48,0,25-16.29,39.89-32.05,39.89M124,29.83h-.76c-51.82,0-94,41.66-94,92.88,0,28.76,19.09,51.29,43.46,51.29C81.07,174,90,170.07,98,162.93a58.89,58.89,0,0,0,25.23,5.58H124a58.94,58.94,0,0,0,25.24-5.58c8,7.14,17,11.07,25.29,11.07,24.36,0,43.45-22.53,43.45-51.29,0-51.22-42.16-92.88-94-92.88"/></g></g></svg>